# xmcd
#
# Track frame offsets:
#	150
#	20670
#	40662
#	62220
#	79902
#	98287
#	119412
#	136587
#	160040
#	182340
#	203717
#	224252
#
# Disc length: 3261 seconds
#
# Revision: 3
# Processed by: cddbd v1.5PL3 Copyright (c) Steve Scherf et al.
# Submitted via: MusicWizard 6.0.2
#
DISCID=930cbb0c
DTITLE=Brian McKnight - Anytime
DYEAR=1997
DGENRE=R&B
TTITLE0=Anytime
TTITLE1=Could
TTITLE2=You Should Be Mine (Don't Waste Your Time) feat. Mase, Kelly Price
TTITLE3=Show Me The Way Back To Your Heart
TTITLE4=Everythime We Say Goodbye
TTITLE5=You Got The Bomb
TTITLE6=Hold Me
TTITLE7=The Only One For Me
TTITLE8=Til I Get Over You
TTITLE9=I Belong To You
TTITLE10=Jam Knock
TTITLE11=When The Chariot Comes
EXTD=YEAR: 1997 ID3G: 42
EXTT0=
EXTT1=
EXTT2=
EXTT3=
EXTT4=
EXTT5=
EXTT6=
EXTT7=
EXTT8=
EXTT9=
EXTT10=
EXTT11=
PLAYORDER=
